<!DOCTYPE svg PUBLIC "-//W3C//DTD SVG 1.1//EN" "http://www.w3.org/Graphics/SVG/1.1/DTD/svg11.dtd">

<!-- Uploaded to: SVG Repo, www.svgrepo.com, Transformed by: SVG Repo Mixer Tools -->
<svg fill="#000000" height="100px" width="100px" version="1.1" id="Layer_1" xmlns="http://www.w3.org/2000/svg" xmlns:xlink="http://www.w3.org/1999/xlink" viewBox="0 0 503.607 503.607" xml:space="preserve">

<g id="SVGRepo_bgCarrier" stroke-width="0"/>

<g id="SVGRepo_tracerCarrier" stroke-linecap="round" stroke-linejoin="round"/>

<g id="SVGRepo_iconCarrier"> <g transform="translate(1 1)"> <g> <g> <path d="M250.803-1C112.311-1-1,111.472-1,250.803s113.311,251.803,251.803,251.803s251.803-113.311,251.803-251.803 S389.295-1,250.803-1z M250.803,485.82c-129.259,0-235.016-105.757-235.016-235.016S121.544,15.787,250.803,15.787 S485.82,121.544,485.82,250.803S380.062,485.82,250.803,485.82z"/> <path d="M250.803,32.574c-120.026,0-218.229,98.203-218.229,218.229c0,120.866,98.203,218.23,218.229,218.23 s218.23-97.364,218.23-218.23C469.033,130.777,370.829,32.574,250.803,32.574z M250.803,452.246 c-110.793,0-201.443-90.649-201.443-201.443S140.01,49.361,250.803,49.361s201.443,90.649,201.443,201.443 S361.597,452.246,250.803,452.246z"/> <path d="M250.803,309.557c-5.036,0-8.393,3.357-8.393,8.393v83.934c0,5.036,3.357,8.393,8.393,8.393s8.393-3.357,8.393-8.393 v-83.934C259.197,312.915,255.839,309.557,250.803,309.557z"/> <path d="M250.803,192.049c5.036,0,8.393-3.357,8.393-8.393V99.721c0-5.036-3.357-8.393-8.393-8.393s-8.393,3.357-8.393,8.393 v83.934C242.41,188.692,245.767,192.049,250.803,192.049z"/> <path d="M183.656,242.41H99.721c-5.036,0-8.393,3.357-8.393,8.393s3.357,8.393,8.393,8.393h83.934 c5.036,0,8.393-3.357,8.393-8.393S188.692,242.41,183.656,242.41z"/> <path d="M401.885,242.41h-83.934c-5.036,0-8.393,3.357-8.393,8.393s3.357,8.393,8.393,8.393h83.934 c5.036,0,8.393-3.357,8.393-8.393S406.921,242.41,401.885,242.41z"/> <path d="M250.803,234.016c-9.233,0-16.787,7.554-16.787,16.787c0,9.233,7.554,16.787,16.787,16.787 c9.233,0,16.787-7.554,16.787-16.787C267.59,241.57,260.036,234.016,250.803,234.016z"/> </g> </g> </g> </g>

</svg>